# Blender v2.69 (sub 0) OBJ File: ''
# www.blender.org
o Cube
v 1.000000 -1.000000 -1.000000
v 1.000000 -1.000000 1.000000
v -1.000000 -1.000000 1.000000
v -1.000000 -1.000000 -1.000000
v 1.000000 6.150598 -0.999999
v 0.999999 6.150598 1.000001
v -1.000000 6.150598 1.000000
v -1.000000 6.150598 -1.000000
v 1.000000 6.150598 -0.999999
v 0.999999 6.150598 1.000001
v -1.000000 6.150598 1.000000
v -1.000000 6.150598 -1.000000
v 2.550128 6.150598 -2.550126
v 2.550126 6.150598 2.550129
v -2.550128 6.150598 2.550126
v -2.550127 6.150598 -2.550128
v 2.550128 6.150598 -2.550126
v 2.550126 6.150598 2.550129
v -2.550128 6.150598 2.550126
v -2.550127 6.150598 -2.550128
v 2.550128 9.282675 -2.550126
v 2.550126 9.282675 2.550129
v -2.550128 9.282675 2.550126
v -2.550127 9.282675 -2.550128
vn 0.000000 -1.000000 0.000000
vn 0.000000 0.000000 1.000000
vn 1.000000 -0.000000 0.000000
vn -1.000000 -0.000000 -0.000000
vn 0.000000 0.000000 -1.000000
vn 0.000000 -1.000000 0.000001
vn -0.000001 0.000000 1.000000
vn 1.000000 0.000000 0.000001
vn 0.000000 1.000000 -0.000000
s off
f 1//1 2//1 4//1
f 8//2 7//2 12//2
f 1//3 5//3 2//3
f 2//2 6//2 3//2
f 3//4 7//4 4//4
f 5//5 1//5 8//5
f 7//2 6//2 11//2
f 5//2 8//2 9//2
f 6//2 5//2 10//2
f 12//6 11//6 16//6
f 11//1 10//1 15//1
f 9//1 12//1 13//1
f 10//1 9//1 14//1
f 16//2 15//2 20//2
f 15//2 14//2 19//2
f 13//2 16//2 17//2
f 14//2 13//2 18//2
f 20//4 19//4 24//4
f 19//7 18//7 23//7
f 17//5 20//5 21//5
f 18//8 17//8 22//8
f 21//9 24//9 23//9
f 22//9 21//9 23//9
f 2//1 3//1 4//1
f 7//2 11//2 12//2
f 5//8 6//8 2//8
f 6//7 7//7 3//7
f 7//4 8//4 4//4
f 1//5 4//5 8//5
f 6//2 10//2 11//2
f 8//2 12//2 9//2
f 5//2 9//2 10//2
f 11//1 15//1 16//1
f 10//1 14//1 15//1
f 12//1 16//1 13//1
f 9//1 13//1 14//1
f 15//2 19//2 20//2
f 14//2 18//2 19//2
f 16//2 20//2 17//2
f 13//2 17//2 18//2
f 19//4 23//4 24//4
f 18//2 22//2 23//2
f 20//5 24//5 21//5
f 17//8 21//8 22//8
